<svg width="146" height="52" viewBox="0 0 146 52" fill="none" xmlns="http://www.w3.org/2000/svg">
<path d="M54.5261 18.8365H58.7473C60.5533 18.8365 61.9201 19.0901 62.8479 19.5973C63.7756 20.1045 64.2395 20.9951 64.2395 22.2692C64.2395 22.7825 64.156 23.2464 63.989 23.6608C63.8282 24.0752 63.5931 24.4153 63.2839 24.6813C62.9747 24.9472 62.5974 25.1204 62.1521 25.2008V25.2936C62.6036 25.3864 63.0118 25.5472 63.3767 25.776C63.7416 25.9987 64.0323 26.3265 64.2487 26.7594C64.4714 27.1862 64.5827 27.7552 64.5827 28.4664C64.5827 29.289 64.3817 29.9941 63.9797 30.5817C63.5777 31.1692 63.0025 31.6207 62.2541 31.9362C61.5119 32.2454 60.6275 32.4 59.6008 32.4H54.5261V18.8365ZM57.4021 24.2081H59.072C59.907 24.2081 60.4852 24.0782 60.8069 23.8185C61.1285 23.5525 61.2893 23.1629 61.2893 22.6495C61.2893 22.13 61.0975 21.7589 60.7141 21.5363C60.3368 21.3074 59.7369 21.193 58.9143 21.193H57.4021V24.2081ZM57.4021 26.4904V30.025H59.2761C60.142 30.025 60.745 29.858 61.0852 29.524C61.4253 29.1901 61.5954 28.7417 61.5954 28.1788C61.5954 27.8448 61.5212 27.5511 61.3728 27.2975C61.2243 27.0439 60.9738 26.846 60.6213 26.7037C60.275 26.5615 59.7956 26.4904 59.1833 26.4904H57.4021ZM76.4948 27.1954C76.4948 28.0613 76.3773 28.8282 76.1423 29.4962C75.9135 30.1642 75.5764 30.7301 75.1311 31.194C74.6919 31.6517 74.16 31.998 73.5354 32.233C72.9169 32.4681 72.218 32.5856 71.4387 32.5856C70.7089 32.5856 70.0378 32.4681 69.4255 32.233C68.8194 31.998 68.2906 31.6517 67.8391 31.194C67.3938 30.7301 67.0474 30.1642 66.8 29.4962C66.5588 28.8282 66.4382 28.0613 66.4382 27.1954C66.4382 26.045 66.6423 25.0709 67.0505 24.2731C67.4587 23.4752 68.0401 22.8691 68.7946 22.4547C69.5492 22.0403 70.4491 21.8331 71.4944 21.8331C72.4654 21.8331 73.3251 22.0403 74.0735 22.4547C74.828 22.8691 75.4187 23.4752 75.8454 24.2731C76.2784 25.0709 76.4948 26.045 76.4948 27.1954ZM69.3235 27.1954C69.3235 27.8758 69.3977 28.4479 69.5461 28.9117C69.6945 29.3756 69.9265 29.7251 70.2419 29.9601C70.5573 30.1951 70.9686 30.3126 71.4758 30.3126C71.9768 30.3126 72.3819 30.1951 72.6911 29.9601C73.0066 29.7251 73.2354 29.3756 73.3777 28.9117C73.5261 28.4479 73.6003 27.8758 73.6003 27.1954C73.6003 26.5089 73.5261 25.9399 73.3777 25.4884C73.2354 25.0307 73.0066 24.6875 72.6911 24.4586C72.3757 24.2298 71.9644 24.1154 71.4572 24.1154C70.7089 24.1154 70.1646 24.372 69.8244 24.8854C69.4904 25.3987 69.3235 26.1687 69.3235 27.1954ZM88.2585 27.1954C88.2585 28.0613 88.141 28.8282 87.906 29.4962C87.6771 30.1642 87.3401 30.7301 86.8947 31.194C86.4556 31.6517 85.9237 31.998 85.299 32.233C84.6806 32.4681 83.9817 32.5856 83.2024 32.5856C82.4725 32.5856 81.8015 32.4681 81.1892 32.233C80.5831 31.998 80.0543 31.6517 79.6028 31.194C79.1574 30.7301 78.8111 30.1642 78.5637 29.4962C78.3225 28.8282 78.2019 28.0613 78.2019 27.1954C78.2019 26.045 78.406 25.0709 78.8142 24.2731C79.2224 23.4752 79.8038 22.8691 80.5583 22.4547C81.3129 22.0403 82.2128 21.8331 83.258 21.8331C84.2291 21.8331 85.0888 22.0403 85.8371 22.4547C86.5917 22.8691 87.1823 23.4752 87.6091 24.2731C88.042 25.0709 88.2585 26.045 88.2585 27.1954ZM81.0871 27.1954C81.0871 27.8758 81.1613 28.4479 81.3098 28.9117C81.4582 29.3756 81.6902 29.7251 82.0056 29.9601C82.321 30.1951 82.7323 30.3126 83.2395 30.3126C83.7404 30.3126 84.1456 30.1951 84.4548 29.9601C84.7702 29.7251 84.9991 29.3756 85.1413 28.9117C85.2898 28.4479 85.364 27.8758 85.364 27.1954C85.364 26.5089 85.2898 25.9399 85.1413 25.4884C84.9991 25.0307 84.7702 24.6875 84.4548 24.4586C84.1394 24.2298 83.7281 24.1154 83.2209 24.1154C82.4725 24.1154 81.9283 24.372 81.5881 24.8854C81.2541 25.3987 81.0871 26.1687 81.0871 27.1954ZM93.426 17.9645V24.4215C93.426 24.8112 93.4105 25.2008 93.3796 25.5905C93.3487 25.9801 93.3147 26.3698 93.2776 26.7594H93.3147C93.5064 26.4873 93.7012 26.2182 93.8991 25.9523C94.1032 25.6863 94.3197 25.4296 94.5486 25.1823L97.4524 22.028H100.644L96.5246 26.5275L100.894 32.4H97.6286L94.6413 28.1974L93.426 29.1715V32.4H90.5964V17.9645H93.426ZM119.263 18.8365L115.812 32.4H112.537L110.7 25.275C110.663 25.139 110.614 24.9318 110.552 24.6534C110.49 24.3751 110.425 24.0721 110.357 23.7443C110.289 23.4103 110.227 23.0979 110.172 22.8073C110.122 22.5104 110.088 22.2753 110.07 22.1022C110.051 22.2753 110.014 22.5073 109.958 22.798C109.909 23.0887 109.85 23.3979 109.782 23.7257C109.72 24.0535 109.658 24.3597 109.596 24.6442C109.535 24.9287 109.485 25.1451 109.448 25.2936L107.62 32.4H104.355L100.894 18.8365H103.724L105.459 26.2399C105.508 26.4625 105.564 26.7285 105.626 27.0377C105.694 27.347 105.759 27.6717 105.821 28.0118C105.889 28.3458 105.947 28.6705 105.997 28.986C106.052 29.2952 106.093 29.5642 106.117 29.7931C106.148 29.5581 106.189 29.2859 106.238 28.9767C106.287 28.6613 106.34 28.3427 106.396 28.0211C106.458 27.6933 106.519 27.3903 106.581 27.1119C106.643 26.8336 106.699 26.6079 106.748 26.4347L108.724 18.8365H111.443L113.419 26.4347C113.462 26.6017 113.511 26.8274 113.567 27.1119C113.629 27.3903 113.691 27.6933 113.753 28.0211C113.815 28.3489 113.87 28.6705 113.92 28.986C113.975 29.2952 114.016 29.5642 114.04 29.7931C114.084 29.4838 114.142 29.1097 114.217 28.6705C114.297 28.2252 114.38 27.783 114.467 27.3439C114.56 26.9047 114.64 26.5367 114.708 26.2399L116.434 18.8365H119.263ZM123.577 22.028V32.4H120.748V22.028H123.577ZM122.167 17.9645C122.588 17.9645 122.95 18.0634 123.253 18.2614C123.556 18.4531 123.707 18.8149 123.707 19.3468C123.707 19.8725 123.556 20.2374 123.253 20.4415C122.95 20.6394 122.588 20.7384 122.167 20.7384C121.74 20.7384 121.376 20.6394 121.072 20.4415C120.776 20.2374 120.627 19.8725 120.627 19.3468C120.627 18.8149 120.776 18.4531 121.072 18.2614C121.376 18.0634 121.74 17.9645 122.167 17.9645ZM133.792 29.3199C133.792 30.025 133.625 30.6219 133.291 31.1105C132.963 31.5929 132.471 31.9609 131.816 32.2145C131.16 32.4619 130.344 32.5856 129.366 32.5856C128.643 32.5856 128.021 32.5392 127.502 32.4464C126.988 32.3536 126.469 32.199 125.943 31.9825V29.6447C126.506 29.8982 127.109 30.1085 127.752 30.2755C128.402 30.4363 128.971 30.5167 129.459 30.5167C130.01 30.5167 130.402 30.4363 130.637 30.2755C130.879 30.1085 130.999 29.892 130.999 29.6261C130.999 29.4529 130.95 29.2983 130.851 29.1622C130.758 29.02 130.554 28.8623 130.238 28.6891C129.923 28.5097 129.428 28.2778 128.754 27.9933C128.105 27.7212 127.57 27.4459 127.149 27.1676C126.735 26.8893 126.426 26.5615 126.221 26.1842C126.023 25.8007 125.925 25.3152 125.925 24.7277C125.925 23.769 126.296 23.0485 127.038 22.566C127.786 22.0774 128.785 21.8331 130.034 21.8331C130.678 21.8331 131.29 21.8981 131.871 22.028C132.459 22.1578 133.062 22.365 133.68 22.6495L132.827 24.6906C132.314 24.4679 131.828 24.2854 131.37 24.1432C130.919 24.0009 130.458 23.9298 129.988 23.9298C129.574 23.9298 129.261 23.9855 129.051 24.0968C128.841 24.2081 128.736 24.3782 128.736 24.6071C128.736 24.774 128.788 24.9225 128.893 25.0524C129.005 25.1823 129.215 25.3276 129.524 25.4884C129.84 25.643 130.3 25.844 130.906 26.0914C131.494 26.3326 132.004 26.5862 132.437 26.8522C132.87 27.1119 133.204 27.4366 133.439 27.8263C133.674 28.2098 133.792 28.7076 133.792 29.3199ZM140.277 21.8331C141.235 21.8331 142.061 22.0187 142.754 22.3898C143.446 22.7547 143.981 23.2866 144.359 23.9855C144.736 24.6844 144.925 25.5379 144.925 26.546V27.9191H138.236C138.266 28.7169 138.505 29.3447 138.95 29.8024C139.401 30.2539 140.026 30.4796 140.824 30.4796C141.486 30.4796 142.092 30.4116 142.642 30.2755C143.193 30.1394 143.759 29.9353 144.34 29.6632V31.8527C143.827 32.1062 143.289 32.2918 142.726 32.4093C142.169 32.5268 141.492 32.5856 140.694 32.5856C139.655 32.5856 138.733 32.3938 137.929 32.0104C137.132 31.6269 136.504 31.0424 136.046 30.257C135.595 29.4715 135.369 28.4819 135.369 27.2882C135.369 26.076 135.573 25.0678 135.981 24.2638C136.396 23.4536 136.971 22.8475 137.707 22.4454C138.443 22.0372 139.299 21.8331 140.277 21.8331ZM140.295 23.8463C139.745 23.8463 139.287 24.0226 138.922 24.3751C138.563 24.7277 138.356 25.2812 138.301 26.0358H142.271C142.265 25.6152 142.188 25.241 142.039 24.9132C141.897 24.5854 141.681 24.3256 141.39 24.1339C141.105 23.9422 140.74 23.8463 140.295 23.8463Z" fill="#FE5F2F"/>
<mask id="mask0_30_495" style="mask-type:alpha" maskUnits="userSpaceOnUse" x="0" y="0" width="47" height="52">
<rect width="46.72" height="52" fill="#D9D9D9"/>
</mask>
<g mask="url(#mask0_30_495)">
<path d="M23.36 43.3333C21.8027 41.9611 20.1156 40.8958 18.2987 40.1375C16.4818 39.3791 14.6 39 12.6534 39C11.2907 39 9.95235 39.1986 8.63835 39.5958C7.32435 39.993 6.06713 40.5528 4.86669 41.275C4.18535 41.6722 3.52835 41.6541 2.89569 41.2208C2.26302 40.7875 1.94669 40.1555 1.94669 39.325V13.2166C1.94669 12.8194 2.03591 12.4403 2.21435 12.0791C2.3928 11.718 2.66046 11.4472 3.01735 11.2666C4.5098 10.4 6.06713 9.74998 7.68935 9.31665C9.31157 8.88331 10.9662 8.66665 12.6534 8.66665C14.5351 8.66665 16.3764 8.93748 18.177 9.47915C19.9777 10.0208 21.7054 10.8333 23.36 11.9166V38.1333C25.0147 36.9778 26.7505 36.1111 28.5674 35.5333C30.3842 34.9555 32.2174 34.6666 34.0667 34.6666C35.2347 34.6666 36.3784 34.775 37.4977 34.9916C38.617 35.2083 39.7445 35.5333 40.88 35.9666V9.96665C41.3667 10.1472 41.8452 10.3368 42.3157 10.5354C42.7861 10.734 43.2485 10.9778 43.7027 11.2666C44.0596 11.4472 44.3272 11.718 44.5057 12.0791C44.6841 12.4403 44.7734 12.8194 44.7734 13.2166V39.325C44.7734 40.1555 44.457 40.7875 43.8244 41.2208C43.1917 41.6541 42.5347 41.6722 41.8534 41.275C40.6529 40.5528 39.3957 39.993 38.0817 39.5958C36.7677 39.1986 35.4294 39 34.0667 39C32.12 39 30.2382 39.3791 28.4214 40.1375C26.6045 40.8958 24.9174 41.9611 23.36 43.3333ZM27.2534 32.5V11.9166L36.9867 1.08331V22.75L27.2534 32.5ZM19.4667 36.0208V14.5708C18.396 14.0653 17.2848 13.6771 16.133 13.4062C14.9812 13.1354 13.8214 13 12.6534 13C11.4529 13 10.2849 13.1264 9.14935 13.3791C8.0138 13.6319 6.91069 14.0111 5.84002 14.5166V36.0208C6.97557 35.5514 8.10302 35.2083 9.22235 34.9916C10.3417 34.775 11.4854 34.6666 12.6534 34.6666C13.8214 34.6666 14.965 34.775 16.0844 34.9916C17.2037 35.2083 18.3311 35.5514 19.4667 36.0208Z" fill="#FE5F2F"/>
</g>
<mask id="mask1_30_495" style="mask-type:alpha" maskUnits="userSpaceOnUse" x="0" y="0" width="47" height="52">
<rect width="46.72" height="52" fill="#D9D9D9"/>
</mask>
<g mask="url(#mask1_30_495)">
<path d="M23.36 43.3333C21.8027 41.9611 20.1156 40.8958 18.2987 40.1375C16.4818 39.3791 14.6 39 12.6534 39C11.2907 39 9.95235 39.1986 8.63835 39.5958C7.32435 39.993 6.06713 40.5528 4.86669 41.275C4.18535 41.6722 3.52835 41.6541 2.89569 41.2208C2.26302 40.7875 1.94669 40.1555 1.94669 39.325V13.2166C1.94669 12.8194 2.03591 12.4403 2.21435 12.0791C2.3928 11.718 2.66046 11.4472 3.01735 11.2666C4.5098 10.4 6.06713 9.74998 7.68935 9.31665C9.31157 8.88331 10.9662 8.66665 12.6534 8.66665C14.5351 8.66665 16.3764 8.93748 18.177 9.47915C19.9777 10.0208 21.7054 10.8333 23.36 11.9166V38.1333C25.0147 36.9778 26.7505 36.1111 28.5674 35.5333C30.3842 34.9555 32.2174 34.6666 34.0667 34.6666C35.2347 34.6666 36.3784 34.775 37.4977 34.9916C38.617 35.2083 39.7445 35.5333 40.88 35.9666V9.96665C41.3667 10.1472 41.8452 10.3368 42.3157 10.5354C42.7861 10.734 43.2485 10.9778 43.7027 11.2666C44.0596 11.4472 44.3272 11.718 44.5057 12.0791C44.6841 12.4403 44.7734 12.8194 44.7734 13.2166V39.325C44.7734 40.1555 44.457 40.7875 43.8244 41.2208C43.1917 41.6541 42.5347 41.6722 41.8534 41.275C40.6529 40.5528 39.3957 39.993 38.0817 39.5958C36.7677 39.1986 35.4294 39 34.0667 39C32.12 39 30.2382 39.3791 28.4214 40.1375C26.6045 40.8958 24.9174 41.9611 23.36 43.3333ZM27.2534 32.5V11.9166L36.9867 1.08331V22.75L27.2534 32.5ZM19.4667 36.0208V14.5708C18.396 14.0653 17.2848 13.6771 16.133 13.4062C14.9812 13.1354 13.8214 13 12.6534 13C11.4529 13 10.2849 13.1264 9.14935 13.3791C8.0138 13.6319 6.91069 14.0111 5.84002 14.5166V36.0208C6.97557 35.5514 8.10302 35.2083 9.22235 34.9916C10.3417 34.775 11.4854 34.6666 12.6534 34.6666C13.8214 34.6666 14.965 34.775 16.0844 34.9916C17.2037 35.2083 18.3311 35.5514 19.4667 36.0208Z" fill="#FE5F2F"/>
</g>
</svg>
